<svg width="1180" height="290" viewBox="0 0 1180 290" fill="none" xmlns="http://www.w3.org/2000/svg">
  <defs>
    <linearGradient id="blue" x1="28" y1="30" x2="236" y2="230" gradientUnits="userSpaceOnUse">
      <stop stop-color="#38BDF8"/>
      <stop offset="0.52" stop-color="#2563EB"/>
      <stop offset="1" stop-color="#172554"/>
    </linearGradient>
    <linearGradient id="green" x1="132" y1="92" x2="220" y2="150" gradientUnits="userSpaceOnUse">
      <stop stop-color="#22C55E"/>
      <stop offset="1" stop-color="#10B981"/>
    </linearGradient>
    <linearGradient id="pro" x1="790" y1="70" x2="940" y2="150" gradientUnits="userSpaceOnUse">
      <stop stop-color="#2563EB"/>
      <stop offset="1" stop-color="#0B5FFF"/>
    </linearGradient>
  </defs>

  <g stroke-linecap="round" stroke-linejoin="round">
    <path d="M34 92H94L120 66H170" stroke="#38BDF8" stroke-width="16"/>
    <path d="M34 130H104L134 100H178" stroke="#22A8F5" stroke-width="16"/>
    <path d="M34 168H94L128 134H168" stroke="#2563EB" stroke-width="16"/>
    <circle cx="34" cy="92" r="17" stroke="#38BDF8" stroke-width="10"/>
    <circle cx="34" cy="130" r="17" stroke="#22A8F5" stroke-width="10"/>
    <circle cx="34" cy="168" r="17" stroke="#2563EB" stroke-width="10"/>
    <circle cx="34" cy="92" r="5" fill="#F8FAFC"/>
    <circle cx="34" cy="130" r="5" fill="#F8FAFC"/>
    <circle cx="34" cy="168" r="5" fill="#F8FAFC"/>
  </g>

  <circle cx="178" cy="118" r="68" stroke="url(#blue)" stroke-width="34" stroke-linecap="round" stroke-dasharray="340 145" transform="rotate(-22 178 118)"/>
  <path d="M166 184C146 218 144 246 160 262C174 286 208 286 226 266C240 250 238 230 242 212C246 192 256 176 274 158" stroke="#10246B" stroke-width="31" stroke-linecap="round" stroke-linejoin="round"/>
  <path d="M176 218C182 206 188 198 196 190" stroke="#F8FAFC" stroke-width="8" stroke-linecap="round" stroke-dasharray="11 10"/>
  <circle cx="176" cy="246" r="14" fill="#F8FAFC"/>
  <circle cx="176" cy="246" r="5" fill="#2563EB"/>
  <circle cx="178" cy="118" r="50" fill="#FFFFFF"/>
  <circle cx="178" cy="118" r="54" stroke="#0F172A" stroke-width="5" opacity="0.35"/>
  <path d="M144 124L168 148L218 98" stroke="url(#green)" stroke-width="19" stroke-linecap="round" stroke-linejoin="round"/>

  <text x="315" y="132" fill="#0F172A" font-family="Inter, Manrope, Arial, sans-serif" font-size="86" font-weight="900" letter-spacing="-4">Promotor</text>
  <text x="780" y="132" fill="url(#pro)" font-family="Inter, Manrope, Arial, sans-serif" font-size="86" font-weight="900" letter-spacing="-4">Pro</text>
  <text x="318" y="188" fill="#64748B" font-family="Inter, Manrope, Arial, sans-serif" font-size="24" font-weight="800" letter-spacing="9">GESTAO</text>
  <circle cx="478" cy="180" r="5" fill="#10B981"/>
  <text x="512" y="188" fill="#64748B" font-family="Inter, Manrope, Arial, sans-serif" font-size="24" font-weight="800" letter-spacing="9">EXECUCAO</text>
  <circle cx="744" cy="180" r="5" fill="#10B981"/>
  <text x="778" y="188" fill="#64748B" font-family="Inter, Manrope, Arial, sans-serif" font-size="24" font-weight="800" letter-spacing="9">RESULTADOS</text>
</svg>
