<svg width="1500" height="430" viewBox="0 0 1500 430" fill="none" xmlns="http://www.w3.org/2000/svg">
  <defs>
    <linearGradient id="blue" x1="60" y1="78" x2="420" y2="350" gradientUnits="userSpaceOnUse">
      <stop stop-color="#18B8FF"/>
      <stop offset="0.52" stop-color="#146DF2"/>
      <stop offset="1" stop-color="#070B8D"/>
    </linearGradient>
    <linearGradient id="green" x1="250" y1="172" x2="365" y2="238" gradientUnits="userSpaceOnUse">
      <stop stop-color="#12D977"/>
      <stop offset="1" stop-color="#08B966"/>
    </linearGradient>
    <linearGradient id="pro" x1="1150" y1="110" x2="1450" y2="260" gradientUnits="userSpaceOnUse">
      <stop stop-color="#43A5FF"/>
      <stop offset="1" stop-color="#1677FF"/>
    </linearGradient>
  </defs>

  <g stroke-linecap="round" stroke-linejoin="round">
    <path d="M70 160H172L214 118H292" stroke="#18B8FF" stroke-width="24"/>
    <circle cx="70" cy="160" r="22" stroke="#18B8FF" stroke-width="15"/>
    <circle cx="70" cy="160" r="7" fill="#EFF6FF"/>
    <path d="M70 216H180L229 167H320" stroke="#168CFF" stroke-width="24"/>
    <circle cx="70" cy="216" r="22" stroke="#168CFF" stroke-width="15"/>
    <circle cx="70" cy="216" r="7" fill="#EFF6FF"/>
    <path d="M70 272H164L220 216H292" stroke="#147DF8" stroke-width="24"/>
    <circle cx="70" cy="272" r="22" stroke="#147DF8" stroke-width="15"/>
    <circle cx="70" cy="272" r="7" fill="#EFF6FF"/>
  </g>

  <path
    d="M328 76C425 76 502 153 502 250C502 322 461 382 411 428C368 467 342 505 339 553C336 601 296 636 249 636C201 636 162 597 166 549C171 484 204 428 255 377C296 336 318 298 318 250C318 199 277 158 226 158C182 158 145 188 134 228H72C85 143 151 76 229 76H328Z"
    fill="url(#blue)"
    transform="translate(0 -58)"
  />
  <path
    d="M326 113C404 118 463 177 463 251C463 302 434 349 393 389C341 441 314 491 311 551C309 581 284 605 249 605C217 605 193 580 196 550C202 472 243 404 292 354C327 319 347 285 347 251C347 181 295 128 226 128C167 128 118 167 99 222"
    stroke="#16A8FF"
    stroke-width="27"
    stroke-linecap="round"
    transform="translate(0 -58)"
  />
  <circle cx="276" cy="194" r="92" fill="#FFFFFF"/>
  <circle cx="276" cy="194" r="96" stroke="#061944" stroke-width="8" opacity="0.42"/>
  <path d="M213 214L261 262L360 163" stroke="url(#green)" stroke-width="34" stroke-linecap="round" stroke-linejoin="round"/>
  <path d="M266 334C279 308 292 287 308 269" stroke="white" stroke-width="13" stroke-linecap="round" stroke-dasharray="22 20" opacity="0.96"/>
  <circle cx="258" cy="392" r="24" fill="#FFFFFF"/>
  <circle cx="258" cy="392" r="10" fill="#1668F2"/>

  <text x="555" y="230" fill="#F8FAFC" font-family="Inter, Manrope, Arial, sans-serif" font-size="148" font-weight="900" letter-spacing="-8">
    Promotor
  </text>
  <text x="1160" y="230" fill="url(#pro)" font-family="Inter, Manrope, Arial, sans-serif" font-size="148" font-weight="900" letter-spacing="-8">
    Pro
  </text>
  <text x="560" y="318" fill="#CBD5E1" font-family="Inter, Manrope, Arial, sans-serif" font-size="42" font-weight="800" letter-spacing="18">
    GESTÃO
  </text>
  <circle cx="810" cy="302" r="7" fill="#10B981"/>
  <text x="860" y="318" fill="#CBD5E1" font-family="Inter, Manrope, Arial, sans-serif" font-size="42" font-weight="800" letter-spacing="18">
    EXECUÇÃO
  </text>
  <circle cx="1198" cy="302" r="7" fill="#10B981"/>
  <text x="1248" y="318" fill="#CBD5E1" font-family="Inter, Manrope, Arial, sans-serif" font-size="42" font-weight="800" letter-spacing="18">
    RESULTADOS
  </text>
</svg>
